<svg xmlns="http://www.w3.org/2000/svg" viewBox="0 0 507.73 507.73"><g id="Calque_2" data-name="Calque 2"><path d="M253.87,0C113.66,0,0,113.66,0,253.87S113.66,507.73,253.87,507.73,507.73,394.07,507.73,253.87,394.07,0,253.87,0ZM402.28,410.8a1.26,1.26,0,0,1-1.26,1.27h-2a1,1,0,0,0-1,1.05v2a3.41,3.41,0,0,1-.85,2.26L383.36,433a10.32,10.32,0,0,0-2.58,6.84,2.31,2.31,0,0,1-1.56,2.18c-22.57,8-61.4-16.64-61.4-16.64-20.9-11.68-23.72-18.21-24-20.48-.13-1.12-.25-2.24-.49-3.34l-1.86-8.3a52.25,52.25,0,0,1-1.11-15.12c4.3-59.49,3.56-112.74,3.28-126a1.4,1.4,0,0,0-2.41-1C265.17,277.87,223.17,381,211.17,411.31a61.75,61.75,0,0,1-9.1,15.7l-21.31,26.76c-13.24,6.31-65.29-28.13-65.29-28.13V418c-1.16-27.33,47.26-280.65,48.94-287.55,4-16.58,10.47-60.75,11.16-68.55,0-.3-1.2-1.79-1.21-2.66,0-.4,1-.67,1.18-.63l5.93,1.9a.23.23,0,0,0,.31-.27l-1.13-5.66a2,2,0,0,1,.61-1.84L183,51.23l2.1-4.2a.36.36,0,0,1,.53-.12l3.87,3a1,1,0,0,0,1.31-.12c2.68-3,3.11-9.34,3.13-12.87a2.09,2.09,0,0,1,2.5-2.12c34.23,5.63,40.64,10.75,41.69,13a3.81,3.81,0,0,0,1.93,2c6,2.52,9.94,4.13,11.36,4.71a.44.44,0,0,0,.6-.4V50.9a.19.19,0,0,1,.17-.18c14.16-.68,9.7,10.6,9.7,16.83,0,5.51-19.11,108.69-23.66,133.23a1.54,1.54,0,0,0,2.64,1.33c39.87-42.4,47.62-38,47.62-38,40.83,5,47.13,11.71,48,14.24a1.5,1.5,0,0,0,1.45,1c39.36-.67,41.27,36.8,41.27,36.8,7.82,22.68-.39,129-.39,129-3.42,41.92,2.31,54.52,5.66,58.27a3.92,3.92,0,0,0,3.87,1.13l6.14-1.53a3.74,3.74,0,0,1,2.88.45l3.37,2.11a3.28,3.28,0,0,1,1.54,2.79Z"/></g></svg>